{
	"asset":{
		"generator":"Khronos glTF Blender I/O v4.4.55",
		"version":"2.0"
	},
	"scene":0,
	"scenes":[
		{
			"name":"Scene",
			"nodes":[
				10
			]
		}
	],
	"nodes":[
		{
			"mesh":0,
			"name":"Pegboard",
			"rotation":[
				1,
				0,
				0,
				0
			],
			"scale":[
				-0.02514476515352726,
				-0.3996908962726593,
				-0.5115914940834045
			],
			"translation":[
				-0.439382404088974,
				0.882892370223999,
				0.18344731628894806
			]
		},
		{
			"mesh":1,
			"name":"Shelf",
			"scale":[
				0.15000000596046448,
				0.009999999776482582,
				0.10000000149011612
			],
			"translation":[
				0,
				0.6053472757339478,
				-0.8391990065574646
			]
		},
		{
			"mesh":2,
			"name":"defaultMaterial"
		},
		{
			"children":[
				2
			],
			"name":"Cube"
		},
		{
			"children":[
				3
			],
			"name":"Collada visual scene group",
			"rotation":[
				0.70710688829422,
				0,
				0,
				0.7071066498756409
			]
		},
		{
			"children":[
				4
			],
			"name":"Table",
			"rotation":[
				-0.70710688829422,
				0,
				0,
				0.7071066498756409
			]
		},
		{
			"mesh":3,
			"name":"Back",
			"rotation":[
				0,
				0,
				-0.7071068286895752,
				0.7071068286895752
			],
			"translation":[
				-0.4732890725135803,
				0.6702005863189697,
				0
			]
		},
		{
			"mesh":4,
			"name":"Floor",
			"translation":[
				0.5267109870910645,
				-0.32979899644851685,
				0
			]
		},
		{
			"mesh":5,
			"name":"Right",
			"rotation":[
				0.7071068286895752,
				0,
				0,
				0.7071068286895752
			],
			"translation":[
				0.5267109274864197,
				0.6702005863189697,
				-1
			]
		},
		{
			"children":[
				6,
				7,
				8
			],
			"name":"Walls"
		},
		{
			"children":[
				0,
				1,
				5,
				9
			],
			"name":"Room"
		}
	],
	"materials":[
		{
			"doubleSided":true,
			"name":"Frame",
			"normalTexture":{
				"index":0
			},
			"pbrMetallicRoughness":{
				"baseColorTexture":{
					"index":1
				},
				"metallicFactor":0,
				"roughnessFactor":0.5
			}
		},
		{
			"doubleSided":true,
			"name":"Material",
			"normalTexture":{
				"index":2
			},
			"occlusionTexture":{
				"index":3
			},
			"pbrMetallicRoughness":{
				"baseColorTexture":{
					"index":4
				},
				"metallicRoughnessTexture":{
					"index":5
				}
			}
		},
		{
			"doubleSided":true,
			"name":"Material.001",
			"normalTexture":{
				"index":6
			},
			"occlusionTexture":{
				"index":7
			},
			"pbrMetallicRoughness":{
				"baseColorTexture":{
					"index":8
				},
				"metallicRoughnessTexture":{
					"index":7
				}
			}
		}
	],
	"meshes":[
		{
			"name":"Cube.002",
			"primitives":[
				{
					"attributes":{
						"POSITION":0,
						"NORMAL":1,
						"TEXCOORD_0":2
					},
					"indices":3,
					"material":0
				}
			]
		},
		{
			"name":"Cube.008",
			"primitives":[
				{
					"attributes":{
						"POSITION":4,
						"NORMAL":5,
						"TEXCOORD_0":6
					},
					"indices":7,
					"material":1
				}
			]
		},
		{
			"name":"defaultMaterial",
			"primitives":[
				{
					"attributes":{
						"POSITION":8,
						"NORMAL":9,
						"TEXCOORD_0":10
					},
					"indices":11,
					"material":2
				}
			]
		},
		{
			"name":"Plane",
			"primitives":[
				{
					"attributes":{
						"POSITION":12,
						"NORMAL":13,
						"TEXCOORD_0":14
					},
					"indices":15
				}
			]
		},
		{
			"name":"Plane.001",
			"primitives":[
				{
					"attributes":{
						"POSITION":16,
						"NORMAL":17,
						"TEXCOORD_0":18
					},
					"indices":15
				}
			]
		},
		{
			"name":"Plane.002",
			"primitives":[
				{
					"attributes":{
						"POSITION":19,
						"NORMAL":20,
						"TEXCOORD_0":21
					},
					"indices":15
				}
			]
		}
	],
	"textures":[
		{
			"sampler":0,
			"source":0
		},
		{
			"sampler":0,
			"source":1
		},
		{
			"sampler":0,
			"source":2
		},
		{
			"sampler":0,
			"source":3
		},
		{
			"sampler":0,
			"source":4
		},
		{
			"sampler":0,
			"source":5
		},
		{
			"sampler":0,
			"source":6
		},
		{
			"sampler":0,
			"source":3
		},
		{
			"sampler":0,
			"source":7
		}
	],
	"images":[
		{
			"mimeType":"image/png",
			"name":"oak_veneer_01_nor_gl_1k",
			"uri":"oak_veneer_01_nor_gl_1k.png"
		},
		{
			"mimeType":"image/png",
			"name":"oak_veneer_01_diff_1k",
			"uri":"oak_veneer_01_diff_1k.png"
		},
		{
			"mimeType":"image/png",
			"name":"plywood_nor_gl_1k",
			"uri":"plywood_nor_gl_1k.png"
		},
		{
			"mimeType":"image/png",
			"name":"Material_metallicRoughness",
			"uri":"Material_metallicRoughness.png"
		},
		{
			"mimeType":"image/png",
			"name":"plywood_diff_1k",
			"uri":"plywood_diff_1k.png"
		},
		{
			"mimeType":"image/png",
			"name":"plywood_arm_1k",
			"uri":"plywood_arm_1k.png"
		},
		{
			"mimeType":"image/png",
			"name":"Material_normal",
			"uri":"Material_normal.png"
		},
		{
			"mimeType":"image/jpeg",
			"name":"Material_baseColor",
			"uri":"Material_baseColor.jpg"
		}
	],
	"accessors":[
		{
			"bufferView":0,
			"componentType":5126,
			"count":64,
			"max":[
				1,
				1,
				1
			],
			"min":[
				-1,
				-1,
				-1
			],
			"type":"VEC3"
		},
		{
			"bufferView":1,
			"componentType":5126,
			"count":64,
			"type":"VEC3"
		},
		{
			"bufferView":2,
			"componentType":5126,
			"count":64,
			"type":"VEC2"
		},
		{
			"bufferView":3,
			"componentType":5123,
			"count":108,
			"type":"SCALAR"
		},
		{
			"bufferView":4,
			"componentType":5126,
			"count":144,
			"max":[
				1.133333444595337,
				14.053672790527344,
				1
			],
			"min":[
				-1.133333444595337,
				-28.053672790527344,
				-1
			],
			"type":"VEC3"
		},
		{
			"bufferView":5,
			"componentType":5126,
			"count":144,
			"type":"VEC3"
		},
		{
			"bufferView":6,
			"componentType":5126,
			"count":144,
			"type":"VEC2"
		},
		{
			"bufferView":7,
			"componentType":5123,
			"count":216,
			"type":"SCALAR"
		},
		{
			"bufferView":8,
			"componentType":5126,
			"count":296,
			"max":[
				0.4663800001144409,
				0.32849401235580444,
				1
			],
			"min":[
				-0.4663800001144409,
				-0.32849401235580444,
				-1
			],
			"type":"VEC3"
		},
		{
			"bufferView":9,
			"componentType":5126,
			"count":296,
			"type":"VEC3"
		},
		{
			"bufferView":10,
			"componentType":5126,
			"count":296,
			"type":"VEC2"
		},
		{
			"bufferView":11,
			"componentType":5123,
			"count":696,
			"type":"SCALAR"
		},
		{
			"bufferView":12,
			"componentType":5126,
			"count":4,
			"max":[
				1,
				0,
				1
			],
			"min":[
				-1,
				0,
				-1
			],
			"type":"VEC3"
		},
		{
			"bufferView":13,
			"componentType":5126,
			"count":4,
			"type":"VEC3"
		},
		{
			"bufferView":14,
			"componentType":5126,
			"count":4,
			"type":"VEC2"
		},
		{
			"bufferView":15,
			"componentType":5123,
			"count":6,
			"type":"SCALAR"
		},
		{
			"bufferView":16,
			"componentType":5126,
			"count":4,
			"max":[
				1,
				0,
				1
			],
			"min":[
				-1,
				0,
				-1
			],
			"type":"VEC3"
		},
		{
			"bufferView":17,
			"componentType":5126,
			"count":4,
			"type":"VEC3"
		},
		{
			"bufferView":18,
			"componentType":5126,
			"count":4,
			"type":"VEC2"
		},
		{
			"bufferView":19,
			"componentType":5126,
			"count":4,
			"max":[
				1,
				0,
				1
			],
			"min":[
				-1,
				0,
				-1
			],
			"type":"VEC3"
		},
		{
			"bufferView":20,
			"componentType":5126,
			"count":4,
			"type":"VEC3"
		},
		{
			"bufferView":21,
			"componentType":5126,
			"count":4,
			"type":"VEC2"
		}
	],
	"bufferViews":[
		{
			"buffer":0,
			"byteLength":768,
			"byteOffset":0,
			"target":34962
		},
		{
			"buffer":0,
			"byteLength":768,
			"byteOffset":768,
			"target":34962
		},
		{
			"buffer":0,
			"byteLength":512,
			"byteOffset":1536,
			"target":34962
		},
		{
			"buffer":0,
			"byteLength":216,
			"byteOffset":2048,
			"target":34963
		},
		{
			"buffer":0,
			"byteLength":1728,
			"byteOffset":2264,
			"target":34962
		},
		{
			"buffer":0,
			"byteLength":1728,
			"byteOffset":3992,
			"target":34962
		},
		{
			"buffer":0,
			"byteLength":1152,
			"byteOffset":5720,
			"target":34962
		},
		{
			"buffer":0,
			"byteLength":432,
			"byteOffset":6872,
			"target":34963
		},
		{
			"buffer":0,
			"byteLength":3552,
			"byteOffset":7304,
			"target":34962
		},
		{
			"buffer":0,
			"byteLength":3552,
			"byteOffset":10856,
			"target":34962
		},
		{
			"buffer":0,
			"byteLength":2368,
			"byteOffset":14408,
			"target":34962
		},
		{
			"buffer":0,
			"byteLength":1392,
			"byteOffset":16776,
			"target":34963
		},
		{
			"buffer":0,
			"byteLength":48,
			"byteOffset":18168,
			"target":34962
		},
		{
			"buffer":0,
			"byteLength":48,
			"byteOffset":18216,
			"target":34962
		},
		{
			"buffer":0,
			"byteLength":32,
			"byteOffset":18264,
			"target":34962
		},
		{
			"buffer":0,
			"byteLength":12,
			"byteOffset":18296,
			"target":34963
		},
		{
			"buffer":0,
			"byteLength":48,
			"byteOffset":18308,
			"target":34962
		},
		{
			"buffer":0,
			"byteLength":48,
			"byteOffset":18356,
			"target":34962
		},
		{
			"buffer":0,
			"byteLength":32,
			"byteOffset":18404,
			"target":34962
		},
		{
			"buffer":0,
			"byteLength":48,
			"byteOffset":18436,
			"target":34962
		},
		{
			"buffer":0,
			"byteLength":48,
			"byteOffset":18484,
			"target":34962
		},
		{
			"buffer":0,
			"byteLength":32,
			"byteOffset":18532,
			"target":34962
		}
	],
	"samplers":[
		{
			"magFilter":9729,
			"minFilter":9987
		}
	],
	"buffers":[
		{
			"byteLength":18564,
			"uri":"room.bin"
		}
	]
}
