{
  "asset": {
    "generator": "Khronos glTF Blender I/O v4.2.57",
    "version": "2.0"
  },
  "extensionsUsed": [
    "KHR_materials_specular",
    "KHR_materials_ior"
  ],
  "scene": 0,
  "scenes": [
    {
      "name": "Scene",
      "nodes": [
        0
      ]
    }
  ],
  "nodes": [
    {
      "mesh": 0,
      "name": "sphere_gltf"
    }
  ],
  "materials": [
    {
      "doubleSided": true,
      "extensions": {
        "KHR_materials_specular": {
          "specularTexture": {
            "index": 0
          }
        },
        "KHR_materials_ior": {
          "ior": 1.4500000476837158
        }
      },
      "name": "rocky_terrain_02",
      "normalTexture": {
        "index": 1
      },
      "pbrMetallicRoughness": {
        "baseColorTexture": {
          "index": 2
        },
        "metallicFactor": 0,
        "metallicRoughnessTexture": {
          "index": 3
        }
      }
    }
  ],
  "meshes": [
    {
      "name": "Sphere.001",
      "primitives": [
        {
          "attributes": {
            "POSITION": 0,
            "NORMAL": 1,
            "TEXCOORD_0": 2
          },
          "indices": 3,
          "material": 0
        }
      ]
    }
  ],
  "textures": [
    {
      "sampler": 0,
      "source": 0
    },
    {
      "sampler": 0,
      "source": 1
    },
    {
      "sampler": 0,
      "source": 2
    },
    {
      "sampler": 0,
      "source": 3
    }
  ],
  "images": [
    {
      "mimeType": "image/jpeg",
      "name": "rocky_terrain_02_spec",
      "uri": "textures/rocky_terrain_02_spec_2k.jpg"
    },
    {
      "mimeType": "image/jpeg",
      "name": "rocky_terrain_02_nor_gl",
      "uri": "textures/rocky_terrain_02_nor_gl_2k.jpg"
    },
    {
      "mimeType": "image/jpeg",
      "name": "rocky_terrain_02_diff",
      "uri": "textures/rocky_terrain_02_diff_2k.jpg"
    },
    {
      "mimeType": "image/jpeg",
      "name": "rocky_terrain_02_rough",
      "uri": "textures/rocky_terrain_02_arm_2k.jpg"
    }
  ],
  "accessors": [
    {
      "bufferView": 0,
      "componentType": 5126,
      "count": 53904,
      "max": [
        44.97224426269531,
        44.953041076660156,
        44.94585037231445
      ],
      "min": [
        -44.97226333618164,
        -45.01557540893555,
        -44.94587326049805
      ],
      "type": "VEC3"
    },
    {
      "bufferView": 1,
      "componentType": 5126,
      "count": 53904,
      "type": "VEC3"
    },
    {
      "bufferView": 2,
      "componentType": 5126,
      "count": 53904,
      "type": "VEC2"
    },
    {
      "bufferView": 3,
      "componentType": 5123,
      "count": 322170,
      "type": "SCALAR"
    }
  ],
  "bufferViews": [
    {
      "buffer": 0,
      "byteLength": 646848,
      "byteOffset": 0,
      "target": 34962
    },
    {
      "buffer": 0,
      "byteLength": 646848,
      "byteOffset": 646848,
      "target": 34962
    },
    {
      "buffer": 0,
      "byteLength": 431232,
      "byteOffset": 1293696,
      "target": 34962
    },
    {
      "buffer": 0,
      "byteLength": 644340,
      "byteOffset": 1724928,
      "target": 34963
    }
  ],
  "samplers": [
    {
      "magFilter": 9729,
      "minFilter": 9987
    }
  ],
  "buffers": [
    {
      "byteLength": 2369268,
      "uri": "rocky_terrain_02.bin"
    }
  ]
}