{
  "asset": {
    "generator": "Khronos glTF Blender I/O v4.2.57",
    "version": "2.0"
  },
  "scene": 0,
  "scenes": [
    {
      "name": "Scene",
      "nodes": [
        0
      ]
    }
  ],
  "nodes": [
    {
      "mesh": 0,
      "name": "quiver_tree_02"
    }
  ],
  "materials": [
    {
      "doubleSided": true,
      "name": "quiver_tree_02",
      "normalTexture": {
        "index": 0
      },
      "pbrMetallicRoughness": {
        "baseColorTexture": {
          "index": 1
        },
        "metallicFactor": 0,
        "metallicRoughnessTexture": {
          "index": 2
        }
      }
    }
  ],
  "meshes": [
    {
      "name": "tree_small_25m",
      "primitives": [
        {
          "attributes": {
            "POSITION": 0,
            "NORMAL": 1,
            "TEXCOORD_0": 2
          },
          "indices": 3,
          "material": 0
        }
      ]
    }
  ],
  "textures": [
    {
      "sampler": 0,
      "source": 0
    },
    {
      "sampler": 0,
      "source": 1
    },
    {
      "sampler": 0,
      "source": 2
    }
  ],
  "images": [
    {
      "mimeType": "image/jpeg",
      "name": "quiver_tree_02_nor_gl",
      "uri": "textures/quiver_tree_02_nor_gl_2k.jpg"
    },
    {
      "mimeType": "image/jpeg",
      "name": "quiver_tree_02_diff",
      "uri": "textures/quiver_tree_02_diff_2k.jpg"
    },
    {
      "mimeType": "image/jpeg",
      "name": "quiver_tree_02_rough",
      "uri": "textures/quiver_tree_02_arm_2k.jpg"
    }
  ],
  "accessors": [
    {
      "bufferView": 0,
      "componentType": 5126,
      "count": 49005,
      "max": [
        0.3877491354942322,
        1.4195584058761597,
        0.44877010583877563
      ],
      "min": [
        -0.48388946056365967,
        -0.049302227795124054,
        -0.4320497214794159
      ],
      "type": "VEC3"
    },
    {
      "bufferView": 1,
      "componentType": 5126,
      "count": 49005,
      "type": "VEC3"
    },
    {
      "bufferView": 2,
      "componentType": 5126,
      "count": 49005,
      "type": "VEC2"
    },
    {
      "bufferView": 3,
      "componentType": 5123,
      "count": 246222,
      "type": "SCALAR"
    }
  ],
  "bufferViews": [
    {
      "buffer": 0,
      "byteLength": 588060,
      "byteOffset": 0,
      "target": 34962
    },
    {
      "buffer": 0,
      "byteLength": 588060,
      "byteOffset": 588060,
      "target": 34962
    },
    {
      "buffer": 0,
      "byteLength": 392040,
      "byteOffset": 1176120,
      "target": 34962
    },
    {
      "buffer": 0,
      "byteLength": 492444,
      "byteOffset": 1568160,
      "target": 34963
    }
  ],
  "samplers": [
    {
      "magFilter": 9729,
      "minFilter": 9987
    }
  ],
  "buffers": [
    {
      "byteLength": 2060604,
      "uri": "quiver_tree_02.bin"
    }
  ]
}